<svg width="16" height="17" viewBox="0 0 16 17" fill="none" xmlns="http://www.w3.org/2000/svg">
<path d="M13.4502 2H2.5166C1.76492 2 1.1499 2.61501 1.1499 3.3667V11.3209C1.1499 12.1561 1.81651 12.8385 2.6514 12.8581L5.87322 12.9336L7.43244 14.9825C7.63254 15.2454 8.02812 15.2454 8.22821 14.9825L9.78744 12.9336H13.4502C14.2019 12.9336 14.8169 12.3186 14.8169 11.5669V3.3667C14.8169 2.61501 14.2019 2 13.4502 2Z" fill="#FF611E"/>
<path d="M7.75534 4.75811C7.82863 4.54726 8.12681 4.54726 8.2001 4.75811L8.79359 6.46549C8.80005 6.48409 8.81741 6.4967 8.8371 6.4971L10.6443 6.53393C10.8675 6.53848 10.9596 6.82207 10.7818 6.95692L9.34134 8.04897C9.32564 8.06087 9.31901 8.08128 9.32471 8.10013L9.84815 9.83026C9.91278 10.0439 9.67155 10.2192 9.48833 10.0917L8.00462 9.05923C7.98845 9.04798 7.96699 9.04798 7.95083 9.05923L6.46712 10.0917C6.2839 10.2192 6.04266 10.0439 6.1073 9.83026L6.63073 8.10013C6.63643 8.08128 6.6298 8.06087 6.61411 8.04897L5.17369 6.95692C4.99582 6.82207 5.08796 6.53848 5.31113 6.53393L7.11834 6.4971C7.13803 6.4967 7.15539 6.48409 7.16186 6.46549L7.75534 4.75811Z" fill="white"/>
</svg>
