<svg width="16" height="17" viewBox="0 0 16 17" fill="none" xmlns="http://www.w3.org/2000/svg">
<path d="M12.3626 4.78024C12.2749 4.73489 12.1895 4.68518 12.1067 4.63129C11.866 4.47217 11.6453 4.28468 11.4494 4.07285C10.9592 3.51199 10.7762 2.94299 10.7087 2.54462H10.7114C10.6551 2.21395 10.6784 2 10.6819 2H8.44929V10.6332C8.44929 10.7491 8.44929 10.8637 8.44441 10.9769C8.44441 10.9909 8.44306 11.0039 8.44225 11.0191C8.44225 11.0253 8.44225 11.0318 8.44089 11.0383C8.44089 11.04 8.44089 11.0416 8.44089 11.0432C8.41736 11.353 8.31806 11.6522 8.15174 11.9146C7.98542 12.177 7.75717 12.3944 7.48707 12.5479C7.20556 12.708 6.88717 12.792 6.5633 12.7916C5.52308 12.7916 4.68002 11.9434 4.68002 10.8959C4.68002 9.84836 5.52308 9.00015 6.5633 9.00015C6.76021 8.99997 6.9559 9.03095 7.14313 9.09196L7.14583 6.8187C6.57748 6.74528 6.00008 6.79045 5.45006 6.95136C4.90004 7.11226 4.38933 7.38541 3.95016 7.75357C3.56534 8.08792 3.24182 8.48687 2.99417 8.93245C2.89992 9.09494 2.54433 9.74788 2.50127 10.8076C2.47419 11.4091 2.65483 12.0322 2.74095 12.2898V12.2952C2.79511 12.4469 3.005 12.9644 3.34704 13.4007C3.62286 13.7507 3.94872 14.0581 4.31414 14.3131V14.3077L4.31956 14.3131C5.4004 15.0476 6.59878 14.9994 6.59878 14.9994C6.80623 14.991 7.50115 14.9994 8.29032 14.6253C9.16561 14.2107 9.66392 13.593 9.66392 13.593C9.98226 13.2239 10.2354 12.8032 10.4125 12.3491C10.6145 11.818 10.6819 11.1811 10.6819 10.9265V6.34639C10.709 6.36264 11.0697 6.60123 11.0697 6.60123C11.0697 6.60123 11.5894 6.93434 12.4003 7.15126C12.982 7.30563 13.7658 7.33813 13.7658 7.33813V5.12174C13.4911 5.15153 12.9335 5.06487 12.3626 4.78024Z" fill="#141B38"/>
</svg>
